<svg height="100" viewBox="0 0 100 100" width="100" xmlns="http://www.w3.org/2000/svg"><path d="m39.8 13.94v36.06h-4.21v33.96l14.41 7.2 8.67-41.16-8.67-41.16z" fill="#9d5025"/><path d="m50 8.84v41.16 41.16l10.2-5.1v-36.06h4.21v-33.96z" fill="#f58536"/><path d="m79.74 39.48-18.23 1.72-5.99-.75 19-19.35z" fill="#6b3a19"/><path d="m74.52 21.1 5.22 2.61v15.77l-5.22-1.04z" fill="#f58536"/><path d="m55.52 40.45 19-2.01v-17.34l-19 5.14z" fill="#9d5025"/><path d="m20.26 60.52 18.23-1.72 5.99.75-19 19.35z" fill="#fbbf93"/><path d="m25.48 78.9-5.22-2.61v-15.77l5.22 1.1z" fill="#9d5025"/><path d="m44.48 59.55-19 2.07v17.28l19-5.14z" fill="#f58536"/><text font-family="HelveticaNeue-CondensedBold, Helvetica Neue" font-size="21" font-weight="700" transform="translate(-2.08 -31.35)">AWS Elastic <tspan x="10.49" y="25.2">Beanstalk</tspan></text></svg>