<svg xmlns="http://www.w3.org/2000/svg" xmlns:xlink="http://www.w3.org/1999/xlink" width="500" zoomAndPan="magnify" viewBox="0 0 375 374.999991" height="500" preserveAspectRatio="xMidYMid meet" version="1.0"><defs><g/><clipPath id="08df694f78"><path d="M 37.5 176 L 361.5 176 L 361.5 327 L 37.5 327 Z M 37.5 176 " clip-rule="nonzero"/></clipPath></defs><g clip-path="url(#08df694f78)"><path fill="#ffffff" d="M 38.394531 319.492188 C 43.792969 310.050781 290.996094 169.234375 361.792969 177.199219 C 292.628906 192.9375 126.792969 279.390625 76.238281 317.316406 C 80.046875 316.964844 85.058594 315.957031 91.859375 313.898438 C 90.304688 317.78125 71.34375 323.492188 62.835938 325.085938 C 49.195312 328.039062 33.613281 327.847656 38.394531 319.53125 Z M 38.394531 319.492188 " fill-opacity="1" fill-rule="nonzero"/></g><g fill="#ffffff" fill-opacity="1"><g transform="translate(44.080376, 272.930387)"><g><path d="M 69.078125 -65.875 C 68.492188 -61.03125 67.632812 -55.328125 66.5 -48.765625 C 65.375 -42.210938 63.769531 -35.65625 61.6875 -29.09375 C 59.613281 -22.53125 57.023438 -16.601562 53.921875 -11.3125 C 50.816406 -6.03125 47.003906 -2.242188 42.484375 0.046875 C 38.859375 1.890625 35.039062 2.597656 31.03125 2.171875 C 25.113281 1.378906 20.316406 -1.6875 16.640625 -7.03125 C 12.972656 -12.382812 10.132812 -18.539062 8.125 -25.5 C 0.695312 -26.664062 -5.226562 -29.632812 -9.65625 -34.40625 C -14.082031 -39.175781 -17.335938 -44.921875 -19.421875 -51.640625 C -21.515625 -58.367188 -22.773438 -65.332031 -23.203125 -72.53125 C -23.640625 -79.726562 -23.566406 -86.316406 -22.984375 -92.296875 C -22.203125 -100.097656 -20.53125 -108.207031 -17.96875 -116.625 C -15.414062 -125.050781 -11.722656 -132.820312 -6.890625 -139.9375 C -2.066406 -147.050781 4.046875 -152.488281 11.453125 -156.25 C 16.878906 -159.007812 22.769531 -160.390625 29.125 -160.390625 C 35.488281 -160.390625 41.253906 -158.671875 46.421875 -155.234375 C 51.679688 -151.640625 55.882812 -146.75 59.03125 -140.5625 C 62.175781 -134.375 64.546875 -127.550781 66.140625 -120.09375 C 67.742188 -112.644531 68.796875 -105.25 69.296875 -97.90625 C 69.796875 -90.5625 69.992188 -84.015625 69.890625 -78.265625 C 71.234375 -80.472656 72.390625 -82.675781 73.359375 -84.875 C 74.328125 -87.070312 74.921875 -89.457031 75.140625 -92.03125 C 74.898438 -93.25 75.226562 -94.085938 76.125 -94.546875 L 76.59375 -94.78125 C 77.800781 -94.632812 78.523438 -93.765625 78.765625 -92.171875 C 79.003906 -90.585938 79.085938 -89.488281 79.015625 -88.875 C 78.828125 -85.175781 77.628906 -81.195312 75.421875 -76.9375 C 73.210938 -72.6875 71.097656 -69 69.078125 -65.875 Z M 28.484375 -38.140625 C 32.859375 -40.359375 37.171875 -43.257812 41.421875 -46.84375 C 45.671875 -50.425781 49.492188 -53.929688 52.890625 -57.359375 C 54.328125 -67.597656 54.96875 -78.1875 54.8125 -89.125 C 54.664062 -100.0625 53.632812 -110.21875 51.71875 -119.59375 C 49.800781 -128.976562 46.894531 -136.566406 43 -142.359375 C 39.101562 -148.160156 34.050781 -151.003906 27.84375 -150.890625 C 23.90625 -150.410156 20.28125 -149.328125 16.96875 -147.640625 C 10.925781 -144.578125 5.898438 -139.695312 1.890625 -133 C -2.109375 -126.3125 -5.144531 -119.117188 -7.21875 -111.421875 C -9.289062 -103.722656 -10.679688 -96.847656 -11.390625 -90.796875 C -11.890625 -85.785156 -11.847656 -79.816406 -11.265625 -72.890625 C -10.691406 -65.960938 -9.894531 -60.007812 -8.875 -55.03125 C -7.875 -50.789062 -6.296875 -46.65625 -4.140625 -42.625 C -1.992188 -38.59375 1.203125 -35.753906 5.453125 -34.109375 L 6.25 -34.234375 C 4.988281 -39.671875 4.132812 -44.984375 3.6875 -50.171875 C 3.25 -55.359375 3.050781 -59.765625 3.09375 -63.390625 C 3.15625 -65.128906 3.304688 -67.816406 3.546875 -71.453125 C 3.796875 -75.097656 4.226562 -78.925781 4.84375 -82.9375 C 5.457031 -86.945312 6.285156 -90.546875 7.328125 -93.734375 C 8.367188 -96.929688 9.71875 -98.953125 11.375 -99.796875 C 12.582031 -100.410156 13.640625 -100.472656 14.546875 -99.984375 C 15.460938 -99.492188 15.695312 -98.757812 15.25 -97.78125 C 14.957031 -96.863281 14.492188 -95.910156 13.859375 -94.921875 C 13.222656 -93.941406 12.710938 -92.878906 12.328125 -91.734375 C 10.992188 -88.390625 10.132812 -84.382812 9.75 -79.71875 C 9.363281 -75.0625 9.238281 -70.347656 9.375 -65.578125 C 9.519531 -60.816406 9.875 -56.582031 10.4375 -52.875 L 10.546875 -52.65625 C 10.878906 -50.15625 11.375 -47.222656 12.03125 -43.859375 C 12.6875 -40.503906 13.5625 -37.007812 14.65625 -33.375 C 18.59375 -33.863281 23.203125 -35.453125 28.484375 -38.140625 Z M 51.140625 -45.09375 C 44.671875 -39.132812 37.890625 -34.347656 30.796875 -30.734375 C 28.535156 -29.585938 26.269531 -28.628906 24 -27.859375 C 21.726562 -27.085938 19.460938 -26.503906 17.203125 -26.109375 C 18.742188 -22.722656 20.503906 -19.632812 22.484375 -16.84375 C 24.460938 -14.0625 26.710938 -12.070312 29.234375 -10.875 C 31.359375 -10.050781 33.398438 -10.132812 35.359375 -11.125 C 38.828125 -12.894531 41.882812 -16.875 44.53125 -23.0625 C 47.1875 -29.257812 49.390625 -36.601562 51.140625 -45.09375 Z M 51.140625 -45.09375 "/></g></g></g><g fill="#ffffff" fill-opacity="1"><g transform="translate(130.634235, 228.834887)"><g><path d="M 64.1875 -42.515625 C 64.5625 -39.898438 65.140625 -38.757812 65.921875 -39.09375 C 67.171875 -39.625 68.617188 -41.519531 70.265625 -44.78125 C 71.921875 -48.050781 73.550781 -51.8125 75.15625 -56.0625 C 76.757812 -60.320312 78.148438 -64.21875 79.328125 -67.75 C 80.515625 -71.289062 81.21875 -73.65625 81.4375 -74.84375 C 82.550781 -79.175781 83.5 -83.023438 84.28125 -86.390625 C 85.070312 -89.753906 85.507812 -91.546875 85.59375 -91.765625 C 85.625 -92.140625 85.796875 -92.394531 86.109375 -92.53125 C 87.046875 -92.925781 88.109375 -92.367188 89.296875 -90.859375 C 88.515625 -87.035156 87.472656 -82.085938 86.171875 -76.015625 C 84.867188 -69.953125 83.175781 -63.726562 81.09375 -57.34375 C 79.007812 -50.957031 76.597656 -45.347656 73.859375 -40.515625 C 71.117188 -35.691406 68.03125 -32.554688 64.59375 -31.109375 C 63.96875 -30.835938 63.273438 -30.726562 62.515625 -30.78125 C 61.765625 -30.832031 60.941406 -30.84375 60.046875 -30.8125 C 57.640625 -31.28125 55.828125 -32.632812 54.609375 -34.875 C 53.390625 -37.125 52.570312 -39.164062 52.15625 -41 C 51.175781 -46.832031 50.566406 -52.640625 50.328125 -58.421875 C 50.097656 -64.203125 49.976562 -69.9375 49.96875 -75.625 C 50.195312 -76.832031 50.15625 -77.367188 49.84375 -77.234375 C 49.84375 -77.234375 49.847656 -77.097656 49.859375 -76.828125 C 49.878906 -76.566406 49.804688 -76.210938 49.640625 -75.765625 C 47.734375 -68.535156 45.859375 -61.316406 44.015625 -54.109375 C 42.179688 -46.910156 40.453125 -39.566406 38.828125 -32.078125 C 38.816406 -31.710938 38.71875 -31.304688 38.53125 -30.859375 C 38.351562 -30.410156 37.90625 -29.945312 37.1875 -29.46875 C 35.875 -29.09375 34.328125 -29.265625 32.546875 -29.984375 C 30.773438 -30.703125 29.503906 -31.539062 28.734375 -32.5 C 27.171875 -34.050781 26.078125 -35.890625 25.453125 -38.015625 C 24.828125 -40.140625 24.382812 -42.160156 24.125 -44.078125 C 23.71875 -49.421875 23.597656 -54.835938 23.765625 -60.328125 C 23.929688 -65.816406 24.320312 -71.535156 24.9375 -77.484375 C 21.800781 -66.597656 18.914062 -55.457031 16.28125 -44.0625 C 13.644531 -32.664062 11.238281 -21.273438 9.0625 -9.890625 C 8.851562 -9.066406 8.660156 -7.878906 8.484375 -6.328125 C 8.304688 -4.785156 7.828125 -3.851562 7.046875 -3.53125 C 5.878906 -2.84375 4.085938 -2.632812 1.671875 -2.90625 C -0.742188 -3.175781 -2.535156 -3.613281 -3.703125 -4.21875 C -5.679688 -5.40625 -7 -7.003906 -7.65625 -9.015625 C -8.320312 -11.035156 -8.742188 -13.113281 -8.921875 -15.25 C -9.171875 -20.664062 -9.328125 -25.195312 -9.390625 -28.84375 C -9.460938 -32.488281 -9.492188 -35.828125 -9.484375 -38.859375 C -9.484375 -41.890625 -9.363281 -45.195312 -9.125 -48.78125 C -8.894531 -52.375 -8.722656 -56.859375 -8.609375 -62.234375 C -8.484375 -64.128906 -8.007812 -65.523438 -7.1875 -66.421875 C -6.375 -67.316406 -5.1875 -68.09375 -3.625 -68.75 C -0.195312 -70.195312 2.988281 -70.253906 5.9375 -68.921875 L 6.5 -68.90625 C 7.75 -68.125 8.398438 -67.332031 8.453125 -66.53125 C 8.515625 -65.738281 8.5 -64.585938 8.40625 -63.078125 L 4.40625 -18.953125 C 4.726562 -20.367188 5.367188 -23.207031 6.328125 -27.46875 C 7.285156 -31.726562 8.472656 -36.867188 9.890625 -42.890625 C 11.304688 -48.910156 12.769531 -55.128906 14.28125 -61.546875 C 15.800781 -67.972656 17.289062 -74.019531 18.75 -79.6875 C 20.21875 -85.363281 21.53125 -90.097656 22.6875 -93.890625 C 23.84375 -97.691406 24.625 -99.769531 25.03125 -100.125 C 25.125 -100.34375 25.484375 -100.582031 26.109375 -100.84375 C 27.359375 -101.375 28.867188 -101.597656 30.640625 -101.515625 C 32.421875 -101.441406 33.863281 -101.179688 34.96875 -100.734375 C 37.632812 -99.648438 39.03125 -97.210938 39.15625 -93.421875 L 39.125 -92.828125 C 38.789062 -85.335938 38.289062 -77.914062 37.625 -70.5625 C 36.96875 -63.21875 36.582031 -55.753906 36.46875 -48.171875 C 36.570312 -47.484375 36.632812 -47.003906 36.65625 -46.734375 C 36.675781 -46.460938 36.6875 -46.328125 36.6875 -46.328125 C 36.84375 -46.398438 36.914062 -46.664062 36.90625 -47.125 C 36.894531 -47.582031 36.984375 -48.03125 37.171875 -48.46875 C 37.691406 -50.707031 38.421875 -54.09375 39.359375 -58.625 C 40.296875 -63.15625 41.414062 -67.898438 42.71875 -72.859375 C 44.03125 -77.816406 45.457031 -82.273438 47 -86.234375 C 48.539062 -90.203125 50.15625 -92.804688 51.84375 -94.046875 C 51.925781 -94.285156 52.203125 -94.503906 52.671875 -94.703125 C 53.921875 -95.222656 55.550781 -95.492188 57.5625 -95.515625 C 59.582031 -95.535156 61.382812 -95.1875 62.96875 -94.46875 C 64.550781 -93.757812 65.234375 -92.359375 65.015625 -90.265625 C 64.285156 -82.410156 63.757812 -74.601562 63.4375 -66.84375 C 63.125 -59.082031 63.273438 -51.207031 63.890625 -43.21875 Z M 64.1875 -42.515625 "/></g></g></g><g fill="#ffffff" fill-opacity="1"><g transform="translate(217.803625, 192.818126)"><g><path d="M 7.34375 -127.96875 C 9.09375 -128.613281 10.976562 -128.628906 13 -128.015625 C 15.03125 -127.410156 16.550781 -126.476562 17.5625 -125.21875 C 18.101562 -124.707031 18.289062 -124.0625 18.125 -123.28125 C 17.96875 -122.5 17.816406 -121.8125 17.671875 -121.21875 C 15.992188 -115 14.40625 -108.773438 12.90625 -102.546875 C 11.40625 -96.316406 9.835938 -90.015625 8.203125 -83.640625 C 7.921875 -82.460938 7.703125 -81.84375 7.546875 -81.78125 C 7.234375 -81.664062 6.648438 -82.265625 5.796875 -83.578125 C 4.140625 -87.117188 3.140625 -91.441406 2.796875 -96.546875 C 2.453125 -101.648438 2.550781 -106.78125 3.09375 -111.9375 C 3.632812 -117.09375 4.410156 -121.476562 5.421875 -125.09375 C 6.066406 -126.78125 6.707031 -127.738281 7.34375 -127.96875 Z M 30.03125 -66.234375 C 31.144531 -66.640625 32.257812 -66.054688 33.375 -64.484375 C 32.851562 -62.484375 32.300781 -60.429688 31.71875 -58.328125 C 31.144531 -56.222656 30.695312 -54.117188 30.375 -52.015625 C 29.65625 -49.585938 28.546875 -46.113281 27.046875 -41.59375 C 25.546875 -37.070312 23.757812 -32.351562 21.6875 -27.4375 C 19.613281 -22.53125 17.378906 -18.191406 14.984375 -14.421875 C 12.585938 -10.660156 10.195312 -8.34375 7.8125 -7.46875 C 4.476562 -6.238281 1.03125 -6.90625 -2.53125 -9.46875 C -6.09375 -12.039062 -7.835938 -15.6875 -7.765625 -20.40625 C -7.703125 -21.695312 -7.582031 -24.3125 -7.40625 -28.25 C -7.226562 -32.1875 -6.953125 -36.703125 -6.578125 -41.796875 C -6.203125 -46.898438 -5.773438 -51.882812 -5.296875 -56.75 C -4.828125 -61.625 -4.253906 -65.71875 -3.578125 -69.03125 C -2.910156 -72.34375 -2.179688 -74.144531 -1.390625 -74.4375 C -1.066406 -74.5625 -0.597656 -74.644531 0.015625 -74.6875 C 0.628906 -74.738281 1.3125 -74.71875 2.0625 -74.625 C 4.09375 -74.476562 6.242188 -74.007812 8.515625 -73.21875 C 10.796875 -72.425781 11.742188 -70.601562 11.359375 -67.75 L 11.296875 -67.1875 C 10.003906 -61.84375 8.875 -56.191406 7.90625 -50.234375 C 6.9375 -44.285156 6.132812 -38.492188 5.5 -32.859375 C 5.414062 -32.109375 5.257812 -30.203125 5.03125 -27.140625 C 4.800781 -24.078125 4.796875 -21.144531 5.015625 -18.34375 C 5.242188 -15.539062 5.945312 -13.992188 7.125 -13.703125 C 7.351562 -13.609375 7.546875 -13.59375 7.703125 -13.65625 C 8.335938 -13.882812 9.269531 -14.769531 10.5 -16.3125 C 15.15625 -23.789062 18.90625 -31.75 21.75 -40.1875 C 24.601562 -48.625 27.257812 -57.085938 29.71875 -65.578125 C 29.769531 -65.953125 29.832031 -66.15625 29.90625 -66.1875 C 29.988281 -66.21875 30.03125 -66.234375 30.03125 -66.234375 Z M 30.03125 -66.234375 "/></g></g></g><g fill="#ffffff" fill-opacity="1"><g transform="translate(246.80376, 181.795823)"><g><path d="M 39.453125 -136.640625 C 42.671875 -137.691406 45.664062 -137.515625 48.4375 -136.109375 C 51.21875 -134.703125 52.226562 -133.25 51.46875 -131.75 C 50.28125 -129.394531 49.035156 -125.019531 47.734375 -118.625 C 46.441406 -112.238281 45.210938 -104.847656 44.046875 -96.453125 C 42.878906 -88.054688 41.851562 -79.476562 40.96875 -70.71875 C 40.09375 -61.96875 39.5 -53.847656 39.1875 -46.359375 C 38.882812 -38.867188 38.921875 -32.910156 39.296875 -28.484375 C 39.679688 -24.066406 40.519531 -22.066406 41.8125 -22.484375 C 42.769531 -22.804688 44.078125 -24.660156 45.734375 -28.046875 C 47.390625 -31.441406 49.148438 -35.585938 51.015625 -40.484375 C 52.890625 -45.378906 54.695312 -50.332031 56.4375 -55.34375 C 58.175781 -60.363281 59.628906 -64.757812 60.796875 -68.53125 C 61.972656 -72.300781 62.644531 -74.742188 62.8125 -75.859375 C 62.914062 -76.078125 63.128906 -76.242188 63.453125 -76.359375 C 64.742188 -76.773438 65.945312 -76.097656 67.0625 -74.328125 C 66.84375 -73.359375 66.484375 -71.988281 65.984375 -70.21875 C 65.492188 -68.457031 64.898438 -66.484375 64.203125 -64.296875 C 64.359375 -63.816406 64.320312 -63.363281 64.09375 -62.9375 C 63.28125 -59.988281 62.054688 -55.84375 60.421875 -50.5 C 58.785156 -45.15625 56.90625 -39.597656 54.78125 -33.828125 C 52.664062 -28.066406 50.390625 -23.046875 47.953125 -18.765625 C 45.523438 -14.492188 43.101562 -11.960938 40.6875 -11.171875 C 40.363281 -11.066406 40.023438 -11.003906 39.671875 -10.984375 C 39.328125 -10.960938 38.972656 -10.976562 38.609375 -11.03125 C 37.316406 -11.132812 35.894531 -11.648438 34.34375 -12.578125 C 32.800781 -13.503906 31.367188 -14.910156 30.046875 -16.796875 C 28.191406 -20.273438 26.832031 -24.140625 25.96875 -28.390625 C 25.113281 -32.648438 24.753906 -37.300781 24.890625 -42.34375 C 24.390625 -39.519531 23.65625 -36.035156 22.6875 -31.890625 C 21.726562 -27.742188 20.609375 -23.539062 19.328125 -19.28125 C 18.046875 -15.03125 16.753906 -11.222656 15.453125 -7.859375 C 14.148438 -4.492188 12.804688 -2.222656 11.421875 -1.046875 C 11.148438 -0.785156 10.769531 -0.578125 10.28125 -0.421875 C 9.800781 -0.265625 9.40625 -0.132812 9.09375 -0.03125 C 6.675781 0.757812 4.34375 0.320312 2.09375 -1.34375 C -0.144531 -3.019531 -1.738281 -5.039062 -2.6875 -7.40625 C -4.75 -12.070312 -5.972656 -17.992188 -6.359375 -25.171875 C -6.753906 -32.347656 -6.410156 -39.585938 -5.328125 -46.890625 C -4.242188 -54.191406 -2.414062 -60.578125 0.15625 -66.046875 C 2.738281 -71.523438 6.035156 -74.921875 10.046875 -76.234375 C 13.265625 -77.285156 16.195312 -76.90625 18.84375 -75.09375 C 21.488281 -73.289062 23.46875 -70.914062 24.78125 -67.96875 C 25.644531 -78.9375 26.84375 -89.703125 28.375 -100.265625 C 29.90625 -110.828125 31.332031 -119.796875 32.65625 -127.171875 C 33.09375 -129.648438 33.691406 -131.632812 34.453125 -133.125 C 35.210938 -134.625 36.878906 -135.796875 39.453125 -136.640625 Z M 17.375 -66.078125 C 15.601562 -65.492188 14 -63.050781 12.5625 -58.75 C 11.125 -54.445312 10.007812 -49.40625 9.21875 -43.625 C 8.4375 -37.851562 7.925781 -32.210938 7.6875 -26.703125 C 7.457031 -21.191406 7.625 -17.015625 8.1875 -14.171875 C 8.707031 -12.035156 9.367188 -11.097656 10.171875 -11.359375 C 11.140625 -11.671875 12.234375 -13.226562 13.453125 -16.03125 C 14.679688 -18.832031 15.976562 -22.367188 17.34375 -26.640625 C 18.707031 -30.910156 20 -35.382812 21.21875 -40.0625 C 22.445312 -44.75 23.492188 -49.019531 24.359375 -52.875 C 24.484375 -54.15625 24.570312 -55.113281 24.625 -55.75 C 24.6875 -56.394531 24.691406 -57.335938 24.640625 -58.578125 C 24.273438 -59.703125 23.414062 -61.378906 22.0625 -63.609375 C 20.707031 -65.835938 19.144531 -66.660156 17.375 -66.078125 Z M 17.375 -66.078125 "/></g></g></g><g fill="#ffffff" fill-opacity="1"><g transform="translate(308.280634, 161.966194)"><g/></g></g></svg>